<svg xmlns="http://www.w3.org/2000/svg" width="24" height="24" viewBox="0 0 24 24" fill="none">
  <path fill-rule="evenodd" clip-rule="evenodd" d="M12 22C17.5228 22 22 17.5228 22 12C22 6.47715 17.5228 2 12 2C6.47715 2 2 6.47715 2 12C2 17.5228 6.47715 22 12 22ZM8.56569 7.43431C8.25327 7.1219 7.74673 7.1219 7.43431 7.43431C7.1219 7.74673 7.1219 8.25327 7.43431 8.56569L10.8686 12L7.43431 15.4343C7.1219 15.7467 7.1219 16.2533 7.43431 16.5657C7.74673 16.8781 8.25327 16.8781 8.56569 16.5657L12 13.1314L15.4343 16.5657C15.7467 16.8781 16.2533 16.8781 16.5657 16.5657C16.8781 16.2533 16.8781 15.7467 16.5657 15.4343L13.1314 12L16.5657 8.56569C16.8781 8.25327 16.8781 7.74673 16.5657 7.43431C16.2533 7.1219 15.7467 7.1219 15.4343 7.43431L12 10.8686L8.56569 7.43431Z" fill="black"/>
</svg>